<svg enable-background="new 0 0 32.885 32.885" height="512" viewBox="0 0 32.885 32.885" width="512" xmlns="http://www.w3.org/2000/svg"><g fill="#111"><path d="m30.799 29.966h-28.711c-1.151 0-2.088-.937-2.088-2.088v-19.188c0-1.15.937-2.086 2.088-2.086h28.711c1.15 0 2.086.936 2.086 2.086v19.188c0 1.151-.936 2.088-2.086 2.088zm-28.711-22.362c-.6 0-1.088.488-1.088 1.086v19.188c0 .6.488 1.088 1.088 1.088h28.711c.599 0 1.086-.488 1.086-1.088v-19.188c0-.599-.487-1.086-1.086-1.086z"/><path d="m21.628 25.007c-3.707 0-6.723-3.016-6.723-6.723 0-3.706 3.016-6.721 6.723-6.721s6.722 3.015 6.722 6.721c0 3.707-3.015 6.723-6.722 6.723zm0-12.444c-3.155 0-5.723 2.566-5.723 5.721s2.567 5.723 5.723 5.723c3.155 0 5.722-2.567 5.722-5.723 0-3.154-2.567-5.721-5.722-5.721z"/><path d="m11.237 7.604h-6.02c-.276 0-.5-.224-.5-.5v-3.685c0-.276.224-.5.5-.5h6.021c.276 0 .5.224.5.5v3.686c-.001.276-.224.499-.501.499zm-5.52-1h5.021v-2.685h-5.021z"/><path d="m5.217 25.276c-.276 0-.5-.224-.5-.5v-12.713c0-.276.224-.5.5-.5s.5.224.5.5v12.713c0 .277-.224.5-.5.5z"/><path d="m21.628 19.943c-.915 0-1.658-.744-1.658-1.658s.744-1.657 1.658-1.657 1.657.744 1.657 1.657c.001.914-.743 1.658-1.657 1.658zm0-2.316c-.363 0-.658.295-.658.657 0 .363.295.658.658.658.362 0 .657-.295.657-.658.001-.362-.294-.657-.657-.657z"/></g></svg>