<svg enable-background="new 0 0 416 416" height="512" viewBox="0 0 416 416" width="512" xmlns="http://www.w3.org/2000/svg"><g fill="#111"><path d="m360 68h-216c0-13.233-10.767-24-24-24h-32c-13.233 0-24 10.767-24 24h-8c-30.879 0-56 25.122-56 56v192c0 30.878 25.121 56 56 56h304c30.879 0 56-25.122 56-56v-192c0-30.878-25.121-56-56-56zm-272-8h32c4.411 0 8 3.589 8 8h-48c0-4.411 3.589-8 8-8zm272 296h-304c-22.056 0-40-17.944-40-40v-152h64c4.418 0 8-3.582 8-8s-3.582-8-8-8h-64v-24c0-22.056 17.944-40 40-40h304c22.056 0 40 17.944 40 40v24h-64c-4.418 0-8 3.582-8 8s3.582 8 8 8h64v152c0 22.056-17.944 40-40 40z"/><path d="m208 100c-66.168 0-120 53.832-120 120s53.832 120 120 120 120-53.832 120-120-53.832-120-120-120zm0 224c-57.346 0-104-46.654-104-104s46.654-104 104-104 104 46.654 104 104-46.654 104-104 104z"/><path d="m208 132c-48.523 0-88 39.477-88 88s39.477 88 88 88 88-39.477 88-88-39.477-88-88-88zm0 160c-39.701 0-72-32.299-72-72s32.299-72 72-72 72 32.299 72 72-32.299 72-72 72z"/><path d="m208 164c-4.418 0-8 3.582-8 8s3.582 8 8 8c22.056 0 40 17.944 40 40 0 4.418 3.582 8 8 8s8-3.582 8-8c0-30.878-25.121-56-56-56z"/><path d="m352 140c13.233 0 24-10.766 24-24s-10.767-24-24-24-24 10.766-24 24 10.767 24 24 24zm0-32c4.411 0 8 3.589 8 8s-3.589 8-8 8-8-3.589-8-8 3.589-8 8-8z"/></g></svg>