<svg enable-background="new 0 0 512 512" viewBox="0 0 512 512" xmlns="http://www.w3.org/2000/svg"><path d="m467 0h-422c-24.901 0-45 20.099-45 45v422c0 24.901 20.099 45 45 45h422c24.901 0 45-20.099 45-45v-422c0-24.901-20.099-45-45-45z" fill="#cde2ff"/><path d="m512 45v422c0 24.901-20.099 45-45 45h-211v-512h211c24.901 0 45 20.099 45 45z" fill="#9bc5ff"/><path d="m467 30h-422c-8.401 0-15 6.599-15 15v422c0 8.401 6.599 15 15 15h422c8.401 0 15-6.599 15-15v-422c0-8.401-6.599-15-15-15z" fill="#1b2868"/><path d="m482 45v422c0 8.401-6.599 15-15 15h-211v-452h211c8.401 0 15 6.599 15 15z" fill="#12254c"/><path d="m271 376c0 8.401-6.599 15-15 15h-120c-8.401 0-15-6.599-15-15v-240c0-8.401 6.599-15 15-15s15 6.599 15 15v225h105c8.401 0 15 6.599 15 15z" fill="#cde2ff"/><g fill="#9bc5ff"><path d="m376 211c-16.948 0-32.426 5.865-45 15.383v-.383c0-8.291-6.709-15-15-15s-15 6.709-15 15v150c0 8.291 6.709 15 15 15s15-6.709 15-15v-90c0-24.814 20.186-45 45-45 8.291 0 15-6.709 15-15s-6.709-15-15-15z"/><path d="m271 376c0 8.401-6.599 15-15 15v-30c8.401 0 15 6.599 15 15z"/></g></svg>