<svg enable-background="new 0 0 512 512" viewBox="0 0 512 512" xmlns="http://www.w3.org/2000/svg"><path d="m256 38c-120.398 0-218 97.602-218 218s97.602 218 218 218 218-97.602 218-218c.066-120.332-97.428-217.934-217.76-218-.08 0-.16 0-.24 0zm56.44 315.76h-112.88l-56.44-97.76 56.44-97.76h112.88l56.44 97.76z" fill="#b1ffff"/><path d="m256 0c-141.49 0-256 114.5-256 256s114.5 256 256 256 256-114.5 256-256-114.5-256-256-256zm51.82 345.76h-103.64l-51.82-89.76 51.82-89.76h103.64l51.82 89.76zm18.48-179.52h152.41c29.579 73.797 20.834 157.437-23.37 223.52zm145.26-16h-258.14l76.16-131.91c81.42 11.33 148.21 63.22 181.98 131.91zm-215.56-134.24c5.413 0 10.79.183 16.13.55l-129.01 223.45-76.12-131.91c44.29-56.42 112.21-92.09 189-92.09zm-199.34 106.24 129 223.52h-152.37c-29.579-73.797-20.834-157.437 23.37-223.52zm-16.22 239.52h258.14l-76.16 131.91c-81.42-11.33-148.21-63.22-181.98-131.91zm215.56 134.24c-5.413 0-10.79-.183-16.13-.55l129.01-223.45 76.12 131.91c-44.29 56.42-112.21 92.09-189 92.09z" fill="#304ffe"/></svg>