<svg enable-background="new 0 0 464 464" height="512" viewBox="0 0 464 464" width="512" xmlns="http://www.w3.org/2000/svg"><g fill="#111"><path d="m376 256h-92.688l-27.312-27.312v-20.688h8c13.232 0 24-10.768 24-24v-32c0-13.232-10.768-24-24-24h-8v-16h40c13.232 0 24-10.768 24-24v-64c0-13.232-10.768-24-24-24h-192c-13.232 0-24 10.768-24 24v64c0 13.232 10.768 24 24 24h40v16h-8c-13.232 0-24 10.768-24 24v32c0 13.232 10.768 24 24 24h8v20.688l-27.312 27.312h-28.688c-22.056 0-40 17.944-40 40v128c0 22.056 17.944 40 40 40h288c22.056 0 40-17.944 40-40v-128c0-22.056-17.944-40-40-40zm-272-160c-4.416 0-8-3.584-8-8v-64c0-4.416 3.584-8 8-8h192c4.416 0 8 3.584 8 8v64c0 4.416-3.584 8-8 8h-48-96zm32 96c-4.416 0-8-3.584-8-8v-32c0-4.416 3.584-8 8-8h16c4.424 0 8-3.576 8-8v-24h80v24c0 4.424 3.576 8 8 8h16c4.416 0 8 3.584 8 8v32c0 4.416-3.584 8-8 8h-16c-4.424 0-8 3.576-8 8v24h-80v-24c0-4.424-3.576-8-8-8zm19.312 48h89.376l16 16h-121.376zm244.688 184c0 13.232-10.768 24-24 24h-288c-13.232 0-24-10.768-24-24v-128c0-13.232 10.768-24 24-24h32 160 96c13.232 0 24 10.768 24 24z"/><path d="m248 160h-96c-4.424 0-8 3.576-8 8s3.576 8 8 8h96c4.424 0 8-3.576 8-8s-3.576-8-8-8z"/><path d="m253.656 322.344-32-32c-1.496-1.504-3.528-2.344-5.656-2.344h-64c-2.128 0-4.16.84-5.656 2.344l-32 32c-1.504 1.496-2.344 3.528-2.344 5.656v96c0 4.424 3.576 8 8 8h128c4.424 0 8-3.576 8-8v-96c0-2.128-.84-4.16-2.344-5.656zm-13.656 93.656h-112v-84.688l27.312-27.312h57.376l27.312 27.312z"/><path d="m152 320c-4.424 0-8 3.576-8 8v64c0 4.424 3.576 8 8 8s8-3.576 8-8v-64c0-4.424-3.576-8-8-8z"/><path d="m216 320c-4.424 0-8 3.576-8 8v64c0 4.424 3.576 8 8 8s8-3.576 8-8v-64c0-4.424-3.576-8-8-8z"/><path d="m312 320c-22.056 0-40 17.944-40 40s17.944 40 40 40 40-17.944 40-40-17.944-40-40-40zm0 64c-13.232 0-24-10.768-24-24s10.768-24 24-24 24 10.768 24 24-10.768 24-24 24z"/><path d="m344 416h-64c-4.424 0-8 3.576-8 8s3.576 8 8 8h64c4.424 0 8-3.576 8-8s-3.576-8-8-8z"/></g></svg>