<svg enable-background="new 0 0 501.551 501.551" viewBox="0 0 501.551 501.551" xmlns="http://www.w3.org/2000/svg"><path d="m367.804 185.309h-346.906c-11.494 0-20.898 9.404-20.898 20.898v273.763c0 11.494 9.404 20.898 20.898 20.898h346.906c11.494 0 20.898-9.404 20.898-20.898v-273.763c0-11.494-9.404-20.898-20.898-20.898z" fill="#40596b"/><path d="m473.339 186.354-84.637 50.155v213.159l84.637 50.155c13.584 5.224 28.212-5.224 28.212-19.853v-274.808c0-14.628-14.629-24.032-28.212-18.808z" fill="#334a5e"/><circle cx="295.706" cy="93.358" fill="#84dbff" r="92.996"/><circle cx="295.706" cy="93.358" fill="#40596b" r="8.359"/><g fill="#fff"><circle cx="295.706" cy="36.934" r="24.033"/><circle cx="295.706" cy="149.783" r="24.033"/><circle cx="352.131" cy="93.358" r="24.033"/><circle cx="239.282" cy="93.358" r="24.033"/></g><circle cx="92.996" cy="93.358" fill="#84dbff" r="92.996"/><circle cx="92.996" cy="93.358" fill="#40596b" r="8.359"/><g fill="#fff"><circle cx="92.996" cy="36.934" r="24.033"/><circle cx="92.996" cy="149.783" r="24.033"/><circle cx="149.42" cy="93.358" r="24.033"/><circle cx="36.571" cy="93.358" r="24.033"/></g><path d="m31.347 385.93h146.286v83.592h-146.286z" fill="#ffd15c"/><circle cx="259.135" cy="427.726" fill="#ff7058" r="13.584"/><circle cx="307.2" cy="427.726" fill="#ff7058" r="13.584"/></svg>