<svg enable-background="new 0 0 470.066 470.066" height="512" viewBox="0 0 470.066 470.066" width="512" xmlns="http://www.w3.org/2000/svg"><g fill="#111"><path d="m178.787 259.584c-8.529 8.53-13.227 19.87-13.227 31.933s4.698 23.403 13.228 31.933l49.723 49.723c1.953 1.953 4.512 2.929 7.071 2.929s5.118-.976 7.071-2.929l49.723-49.723c8.529-8.53 13.227-19.87 13.227-31.933s-4.698-23.403-13.228-31.933-19.87-13.227-31.932-13.227c-8.978 0-17.554 2.602-24.87 7.448-17.517-11.55-41.378-9.626-56.786 5.779zm63.866 14.143c9.808-9.809 25.771-9.811 35.58 0 9.81 9.81 9.81 25.771 0 35.58l-42.651 42.652-42.652-42.652c-4.752-4.751-7.369-11.07-7.369-17.79s2.617-13.038 7.37-17.79c4.904-4.905 11.347-7.357 17.79-7.357 6.442 0 12.886 2.452 17.79 7.357 3.906 3.905 10.236 3.904 14.142 0z"/><path d="m460.066 157.523h-182.628v-132.221c0-5.523-4.478-10-10-10h-120.618c-5.522 0-10 4.477-10 10v132.221h-126.82c-5.522 0-10 4.477-10 10v277.241c0 5.523 4.478 10 10 10h450.066c5.522 0 10-4.477 10-10v-277.241c0-5.523-4.477-10-10-10zm-202.628-122.221v34.008h-100.618v-34.008zm-100.618 54.008h100.617v68.213h-100.617zm293.246 345.454h-430.066v-257.241h430.066z"/><path d="m126.567 306.144c0 60.111 48.903 109.015 109.015 109.015s109.015-48.904 109.015-109.015-48.903-109.015-109.015-109.015-109.015 48.904-109.015 109.015zm198.03 0c0 49.083-39.932 89.015-89.015 89.015s-89.015-39.932-89.015-89.015 39.932-89.015 89.015-89.015 89.015 39.932 89.015 89.015z"/><path d="m344.245 241.415h79.216c5.522 0 10-4.477 10-10v-34.207c0-5.523-4.478-10-10-10h-79.216c-5.522 0-10 4.477-10 10v34.207c0 5.523 4.478 10 10 10zm10-34.207h59.216v14.207h-59.216z"/><path d="m103.459 360.146c-17.427 0-31.604 14.178-31.604 31.604 0 17.427 14.178 31.604 31.604 31.604s31.604-14.178 31.604-31.604c0-17.427-14.178-31.604-31.604-31.604zm0 43.208c-6.398 0-11.604-5.206-11.604-11.604s5.206-11.604 11.604-11.604 11.604 5.206 11.604 11.604-5.206 11.604-11.604 11.604z"/></g></svg>